<svg xmlns="http://www.w3.org/2000/svg" viewBox="0 0 1200 360" width="1200" height="360" role="img"><defs><linearGradient id="bg" x1="0" y1="0" x2="1" y2="1"><stop offset="0" stop-color="#0d0d10"/><stop offset="1" stop-color="#e01327"/></linearGradient><radialGradient id="gl" cx="0.5" cy="0.35" r="0.75"><stop offset="0" stop-color="#ff5065" stop-opacity="0.35"/><stop offset="1" stop-color="#ff5065" stop-opacity="0"/></radialGradient></defs><rect width="1200" height="360" fill="url(#bg)"/><rect width="1200" height="360" fill="url(#gl)"/><circle cx="1114" cy="-20" r="114" fill="#ff5065" opacity="0.106"/><circle cx="95" cy="72" r="97" fill="#ff5065" opacity="0.06"/><circle cx="538" cy="38" r="47" fill="#ff5065" opacity="0.07"/><circle cx="387" cy="273" r="107" fill="#ff5065" opacity="0.064"/><circle cx="55" cy="52" r="98" fill="#ff5065" opacity="0.099"/><circle cx="1049" cy="17" r="104" fill="#ff5065" opacity="0.075"/><circle cx="1162" cy="285" r="70" fill="#ff5065" opacity="0.095"/><line x1="0" y1="34" x2="1200" y2="9" stroke="#ff5065" stroke-width="1" opacity="0.05"/><line x1="0" y1="260" x2="1200" y2="237" stroke="#ff5065" stroke-width="1" opacity="0.05"/><line x1="0" y1="176" x2="1200" y2="201" stroke="#ff5065" stroke-width="1" opacity="0.05"/><rect y="50" width="1200" height="260" fill="#000000" opacity="0.20"/><text x="600" y="148" text-anchor="middle" font-family="&#39;Segoe UI&#39;,&#39;Arial&#39;,sans-serif" font-size="78" font-weight="700" fill="#ffffff" textLength="1029.6" lengthAdjust="spacingAndGlyphs">Blue Marble Geographic</text><text x="600" y="230.7" text-anchor="middle" font-family="&#39;Segoe UI&#39;,&#39;Arial&#39;,sans-serif" font-size="78" font-weight="700" fill="#ffffff" textLength="982.8" lengthAdjust="spacingAndGlyphs">Calculator Full Acce…</text><rect x="530" y="252.7" width="140" height="4" rx="2" fill="#ff5065"/><text x="600" y="290.7" text-anchor="middle" font-family="&#39;Segoe UI&#39;,&#39;Arial&#39;,sans-serif" font-size="28.0" font-weight="400" fill="#ffffff" fill-opacity="0.85" textLength="1050.0" lengthAdjust="spacingAndGlyphs">Unlocks Blue Marble Geographic Calculator with a lightweight license ke…</text></svg>